<svg width="24" height="24" viewBox="0 0 24 24" fill="none" xmlns="http://www.w3.org/2000/svg">
<path fill-rule="evenodd" clip-rule="evenodd" d="M5.30078 4.5C4.19621 4.5 3.30078 5.39543 3.30078 6.5V16.5V18.5659C3.30078 19.5664 4.60733 19.9469 5.14444 19.1028L6.50607 16.9631C6.68962 16.6747 7.00783 16.5 7.34973 16.5H8.30078V18.5C8.30078 19.6046 9.19621 20.5 10.3008 20.5H18.2801C18.6064 20.5 18.9122 20.6592 19.0994 20.9265L20.4816 22.9011C21.0422 23.7021 22.3008 23.3053 22.3008 22.3276V20.5V12.5C22.3008 11.3954 21.4054 10.5 20.3008 10.5H18.3008V6.5C18.3008 5.39543 17.4054 4.5 16.3008 4.5H5.30078Z" fill="#1A2027"/>
<path d="M5.14444 19.1028L5.56627 19.3713L5.56627 19.3713L5.14444 19.1028ZM6.50607 16.9631L6.9279 17.2316L6.50607 16.9631ZM8.30078 16.5H8.80078V16H8.30078V16.5ZM19.0994 20.9265L18.6897 21.2133L18.6897 21.2133L19.0994 20.9265ZM20.4816 22.9011L20.8912 22.6144L20.8912 22.6144L20.4816 22.9011ZM18.3008 10.5H17.8008V11H18.3008V10.5ZM3.80078 6.5C3.80078 5.67157 4.47235 5 5.30078 5V4C3.92007 4 2.80078 5.11929 2.80078 6.5H3.80078ZM3.80078 16.5V6.5H2.80078V16.5H3.80078ZM3.80078 18.5659V16.5H2.80078V18.5659H3.80078ZM4.72261 18.8344C4.45405 19.2564 3.80078 19.0662 3.80078 18.5659H2.80078C2.80078 20.0666 4.7606 20.6373 5.56627 19.3713L4.72261 18.8344ZM6.08423 16.6947L4.72261 18.8344L5.56627 19.3713L6.9279 17.2316L6.08423 16.6947ZM7.34973 16C6.83688 16 6.35957 16.262 6.08423 16.6947L6.9279 17.2316C7.01968 17.0873 7.17878 17 7.34973 17V16ZM8.30078 16H7.34973V17H8.30078V16ZM8.80078 18.5V16.5H7.80078V18.5H8.80078ZM10.3008 20C9.47235 20 8.80078 19.3284 8.80078 18.5H7.80078C7.80078 19.8807 8.92007 21 10.3008 21V20ZM18.2801 20H10.3008V21H18.2801V20ZM19.509 20.6398C19.2283 20.2388 18.7696 20 18.2801 20V21C18.4433 21 18.5962 21.0796 18.6897 21.2133L19.509 20.6398ZM20.8912 22.6144L19.509 20.6398L18.6897 21.2133L20.0719 23.1878L20.8912 22.6144ZM21.8008 22.3276C21.8008 22.8165 21.1715 23.0149 20.8912 22.6144L20.0719 23.1878C20.913 24.3893 22.8008 23.7942 22.8008 22.3276H21.8008ZM21.8008 20.5V22.3276H22.8008V20.5H21.8008ZM21.8008 12.5V20.5H22.8008V12.5H21.8008ZM20.3008 11C21.1292 11 21.8008 11.6716 21.8008 12.5H22.8008C22.8008 11.1193 21.6815 10 20.3008 10V11ZM18.3008 11H20.3008V10H18.3008V11ZM17.8008 6.5V10.5H18.8008V6.5H17.8008ZM16.3008 5C17.1292 5 17.8008 5.67157 17.8008 6.5H18.8008C18.8008 5.11929 17.6815 4 16.3008 4V5ZM5.30078 5H16.3008V4H5.30078V5Z" fill="black"/>
<path d="M7.30078 11.5C7.30078 10.3954 8.19621 9.5 9.30078 9.5H19.3008C20.4054 9.5 21.3008 10.3954 21.3008 11.5V19.5V21.3276C21.3008 22.3053 20.0422 22.7021 19.4815 21.9011L18.0994 19.9265C17.9122 19.6592 17.6064 19.5 17.2801 19.5H9.30078C8.19621 19.5 7.30078 18.6046 7.30078 17.5V11.5Z" fill="#AFEEFF" stroke="black"/>
<path d="M7.30078 11.5C7.30078 10.3954 8.19621 9.5 9.30078 9.5H19.3008C20.4054 9.5 21.3008 10.3954 21.3008 11.5V19.5V21.3276C21.3008 22.3053 20.0422 22.7021 19.4815 21.9011L18.0994 19.9265C17.9122 19.6592 17.6064 19.5 17.2801 19.5H9.30078C8.19621 19.5 7.30078 18.6046 7.30078 17.5V11.5Z" fill="#AFEEFF"/>
<path fill-rule="evenodd" clip-rule="evenodd" d="M6.80078 11.5C6.80078 10.1193 7.92007 9 9.30078 9H19.3008C20.6815 9 21.8008 10.1193 21.8008 11.5V21.3276C21.8008 22.7942 19.913 23.3893 19.0719 22.1878L17.6897 20.2133C17.5962 20.0796 17.4433 20 17.2801 20H9.30078C7.92007 20 6.80078 18.8807 6.80078 17.5V11.5ZM9.30078 10C8.47235 10 7.80078 10.6716 7.80078 11.5V17.5C7.80078 18.3284 8.47235 19 9.30078 19H17.2801C17.7696 19 18.2283 19.2388 18.509 19.6398L19.8912 21.6144C20.1715 22.0149 20.8008 21.8165 20.8008 21.3276V11.5C20.8008 10.6716 20.1292 10 19.3008 10H9.30078Z" fill="black"/>
<path d="M2.30078 5.5C2.30078 4.39543 3.19621 3.5 4.30078 3.5H15.3008C16.4054 3.5 17.3008 4.39543 17.3008 5.5V13.5C17.3008 14.6046 16.4054 15.5 15.3008 15.5H6.34973C6.00783 15.5 5.68962 15.6747 5.50607 15.9631L4.14444 18.1028C3.60733 18.9469 2.30078 18.5664 2.30078 17.5659V15.5V5.5Z" fill="#3BD5FF"/>
<path fill-rule="evenodd" clip-rule="evenodd" d="M1.80078 5.5C1.80078 4.11929 2.92007 3 4.30078 3H15.3008C16.6815 3 17.8008 4.11929 17.8008 5.5V13.5C17.8008 14.8807 16.6815 16 15.3008 16H6.34973C6.17878 16 6.01968 16.0873 5.9279 16.2316L4.56627 18.3713C3.7606 19.6373 1.80078 19.0666 1.80078 17.5659V5.5ZM4.30078 4C3.47235 4 2.80078 4.67157 2.80078 5.5V17.5659C2.80078 18.0662 3.45405 18.2564 3.72261 17.8344L5.08423 15.6947C5.35957 15.262 5.83688 15 6.34973 15H15.3008C16.1292 15 16.8008 14.3284 16.8008 13.5V5.5C16.8008 4.67157 16.1292 4 15.3008 4H4.30078Z" fill="black"/>
<path fill-rule="evenodd" clip-rule="evenodd" d="M4.80078 7.5C4.80078 7.22386 5.02464 7 5.30078 7H13.3008C13.5769 7 13.8008 7.22386 13.8008 7.5C13.8008 7.77614 13.5769 8 13.3008 8H5.30078C5.02464 8 4.80078 7.77614 4.80078 7.5Z" fill="black"/>
<path fill-rule="evenodd" clip-rule="evenodd" d="M4.80078 10.5C4.80078 10.2239 5.02464 10 5.30078 10H10.3008C10.5769 10 10.8008 10.2239 10.8008 10.5C10.8008 10.7761 10.5769 11 10.3008 11H5.30078C5.02464 11 4.80078 10.7761 4.80078 10.5Z" fill="black"/>
</svg>
