<svg width="24" height="24" viewBox="0 0 24 24" fill="none" xmlns="http://www.w3.org/2000/svg">
<path fill-rule="evenodd" clip-rule="evenodd" d="M4.30078 3C2.92007 3 1.80078 4.11929 1.80078 5.5V17.5659C1.80078 19.0666 3.7606 19.6373 4.56627 18.3713L5.9279 16.2316C6.01968 16.0873 6.17878 16 6.34973 16H6.80078V17.5C6.80078 18.8807 7.92007 20 9.30078 20H17.2801C17.4433 20 17.5962 20.0796 17.6897 20.2133L19.0719 22.1878C19.913 23.3893 21.8008 22.7942 21.8008 21.3276V11.5C21.8008 10.1193 20.6815 9 19.3008 9H17.8008V5.5C17.8008 4.11929 16.6815 3 15.3008 3H4.30078ZM17.8008 10V13.5C17.8008 14.8807 16.6815 16 15.3008 16H7.80078V17.5C7.80078 18.3284 8.47235 19 9.30078 19H17.2801C17.7696 19 18.2283 19.2388 18.509 19.6398L19.8912 21.6144C20.1715 22.0149 20.8008 21.8165 20.8008 21.3276V11.5C20.8008 10.6716 20.1292 10 19.3008 10H17.8008ZM2.80078 5.5C2.80078 4.67157 3.47235 4 4.30078 4H15.3008C16.1292 4 16.8008 4.67157 16.8008 5.5V13.5C16.8008 14.3284 16.1292 15 15.3008 15H6.34973C5.83688 15 5.35957 15.262 5.08423 15.6947L3.72261 17.8344C3.45405 18.2564 2.80078 18.0662 2.80078 17.5659V5.5Z" fill="black"/>
<path fill-rule="evenodd" clip-rule="evenodd" d="M4.80078 7.5C4.80078 7.22386 5.02464 7 5.30078 7H13.3008C13.5769 7 13.8008 7.22386 13.8008 7.5C13.8008 7.77614 13.5769 8 13.3008 8H5.30078C5.02464 8 4.80078 7.77614 4.80078 7.5Z" fill="black"/>
<path fill-rule="evenodd" clip-rule="evenodd" d="M4.80078 10.5C4.80078 10.2239 5.02464 10 5.30078 10H10.3008C10.5769 10 10.8008 10.2239 10.8008 10.5C10.8008 10.7761 10.5769 11 10.3008 11H5.30078C5.02464 11 4.80078 10.7761 4.80078 10.5Z" fill="black"/>
</svg>
