<svg width="24" height="24" viewBox="0 0 24 24" fill="none" xmlns="http://www.w3.org/2000/svg">
<path fill-rule="evenodd" clip-rule="evenodd" d="M10.1516 8.89172C10.053 8.96215 9.93486 9.00001 9.81369 9.00001H6.75C5.23122 9.00001 4 10.2312 4 11.75C4 13.2478 5.19744 14.4659 6.68724 14.4993L9.25667 21.3511C9.40304 21.7414 9.77616 22 10.193 22H11.023C11.7304 22 12.2142 21.2855 11.9514 20.6286L9.5 14.5H9.82881C9.94058 14.5 10.05 14.5321 10.144 14.5926L15.4592 18.0095C16.1248 18.4374 17 17.9595 17 17.1683V5.9432C17 5.12983 16.0806 4.6567 15.4188 5.12947L10.1516 8.89172Z" fill="black"/>
<path d="M10.1516 8.89172L10.4422 9.29859L10.4422 9.29859L10.1516 8.89172ZM6.68724 14.4993L7.1554 14.3237L7.03662 14.007L6.69843 13.9994L6.68724 14.4993ZM9.25667 21.3511L9.72484 21.1756H9.72484L9.25667 21.3511ZM11.9514 20.6286L11.4872 20.8143L11.9514 20.6286ZM9.5 14.5V14H8.76148L9.03576 14.6857L9.5 14.5ZM10.144 14.5926L9.87362 15.0132L9.87363 15.0132L10.144 14.5926ZM15.4592 18.0095L15.7296 17.5889L15.4592 18.0095ZM15.4188 5.12947L15.7094 5.53633V5.53633L15.4188 5.12947ZM9.81369 9.50001C10.0391 9.50001 10.2588 9.42959 10.4422 9.29859L9.86099 8.48485C9.84719 8.49471 9.83065 8.50001 9.81369 8.50001V9.50001ZM6.75 9.50001H9.81369V8.50001H6.75V9.50001ZM4.5 11.75C4.5 10.5074 5.50736 9.50001 6.75 9.50001V8.50001C4.95507 8.50001 3.5 9.95508 3.5 11.75H4.5ZM6.69843 13.9994C5.47974 13.9721 4.5 12.9754 4.5 11.75H3.5C3.5 13.5202 4.91515 14.9598 6.67604 14.9992L6.69843 13.9994ZM9.72484 21.1756L7.1554 14.3237L6.21907 14.6749L8.78851 21.5267L9.72484 21.1756ZM10.193 21.5C9.98458 21.5 9.79802 21.3707 9.72484 21.1756L8.78851 21.5267C9.00805 22.1122 9.56773 22.5 10.193 22.5V21.5ZM11.023 21.5H10.193V22.5H11.023V21.5ZM11.4872 20.8143C11.6186 21.1427 11.3767 21.5 11.023 21.5V22.5C12.0842 22.5 12.8098 21.4282 12.4157 20.4429L11.4872 20.8143ZM9.03576 14.6857L11.4872 20.8143L12.4157 20.4429L9.96424 14.3143L9.03576 14.6857ZM9.82881 14H9.5V15H9.82881V14ZM10.4144 14.172C10.2397 14.0597 10.0364 14 9.82881 14V15C9.8447 15 9.86026 15.0046 9.87362 15.0132L10.4144 14.172ZM15.7296 17.5889L10.4144 14.172L9.87363 15.0132L15.1889 18.4301L15.7296 17.5889ZM16.5 17.1683C16.5 17.5639 16.0624 17.8028 15.7296 17.5889L15.1889 18.4301C16.1871 19.0719 17.5 18.3551 17.5 17.1683H16.5ZM16.5 5.9432V17.1683H17.5V5.9432H16.5ZM15.7094 5.53633C16.0403 5.29995 16.5 5.53651 16.5 5.9432H17.5C17.5 4.72314 16.1209 4.01345 15.1281 4.7226L15.7094 5.53633ZM10.4422 9.29859L15.7094 5.53633L15.1281 4.7226L9.86099 8.48485L10.4422 9.29859Z" fill="black"/>
<path d="M5.5 13L8.5 13.5L10.9514 19.6286C11.2142 20.2855 10.7304 21 10.023 21H9.193C8.77616 21 8.40304 20.7414 8.25667 20.3511L5.5 13Z" fill="#7E7E7E"/>
<path fill-rule="evenodd" clip-rule="evenodd" d="M4.72766 12.3644L8.85976 13.0531L11.4157 19.4429C11.8098 20.4282 11.0842 21.5 10.023 21.5H9.19302C8.56775 21.5 8.00807 21.1121 7.78853 20.5267L4.72766 12.3644ZM6.27238 13.6356L8.72486 20.1756C8.79804 20.3707 8.9846 20.5 9.19302 20.5H10.023C10.3767 20.5 10.6186 20.1427 10.4872 19.8143L8.14028 13.9469L6.27238 13.6356Z" fill="black"/>
<path d="M8.81369 8.00001C8.93486 8.00001 9.053 7.96215 9.15161 7.89172L14.4188 4.12947C15.0806 3.6567 16 4.12983 16 4.9432V16.1683C16 16.9595 15.1248 17.4374 14.4592 17.0095L9.144 13.5926C9.04999 13.5321 8.94058 13.5 8.82881 13.5H5.75C4.23122 13.5 3 12.2688 3 10.75Lnan nanL3 10.75C3 9.23123 4.23122 8.00001 5.75 8.00001H8.81369Z" fill="#625CE4"/>
<path fill-rule="evenodd" clip-rule="evenodd" d="M15.5 4.9432C15.5 4.53651 15.0403 4.29995 14.7094 4.53633L9.44222 8.29858C9.25882 8.42958 9.03907 8.50001 8.81369 8.50001H5.75C4.50736 8.50001 3.5 9.50737 3.5 10.75C3.5 11.9926 4.50736 13 5.75 13H8.82881C9.03645 13 9.23972 13.0597 9.41438 13.172L14.7296 16.5889C15.0624 16.8028 15.5 16.5639 15.5 16.1683V4.9432ZM14.1281 3.7226C15.1209 3.01345 16.5 3.72314 16.5 4.9432V16.1683C16.5 17.3551 15.1871 18.0719 14.1889 17.4301L8.87363 14.0132C8.86026 14.0046 8.8447 14 8.82881 14H5.75C3.95507 14 2.5 12.5449 2.5 10.75C2.5 8.95508 3.95507 7.50001 5.75 7.50001H8.81369C8.83065 7.50001 8.84719 7.49471 8.86099 7.48485L14.1281 3.7226Z" fill="black"/>
<path fill-rule="evenodd" clip-rule="evenodd" d="M19.5 11C19.5 10.7239 19.7239 10.5 20 10.5L22 10.5C22.2761 10.5 22.5 10.7239 22.5 11C22.5 11.2761 22.2761 11.5 22 11.5L20 11.5C19.7239 11.5 19.5 11.2761 19.5 11Z" fill="black"/>
<path fill-rule="evenodd" clip-rule="evenodd" d="M20.3536 5.64645C20.1583 5.45118 19.8417 5.45118 19.6464 5.64645L18.6464 6.64645C18.4512 6.84171 18.4512 7.15829 18.6464 7.35355C18.8417 7.54882 19.1583 7.54882 19.3536 7.35355L20.3536 6.35355C20.5488 6.15829 20.5488 5.84171 20.3536 5.64645Z" fill="black"/>
<path fill-rule="evenodd" clip-rule="evenodd" d="M18.6464 14.6464C18.8417 14.4512 19.1583 14.4512 19.3536 14.6464L20.3536 15.6464C20.5488 15.8417 20.5488 16.1583 20.3536 16.3536C20.1583 16.5488 19.8417 16.5488 19.6464 16.3536L18.6464 15.3536C18.4512 15.1583 18.4512 14.8417 18.6464 14.6464Z" fill="black"/>
</svg>
