<svg width="24" height="24" viewBox="0 0 24 24" fill="none" xmlns="http://www.w3.org/2000/svg">
<path fill-rule="evenodd" clip-rule="evenodd" d="M4.99792 13H8.83851L11.4157 19.4429C11.8098 20.4282 11.0842 21.5 10.023 21.5H9.193C8.56773 21.5 8.00805 21.1121 7.7885 20.5267L5.3765 14.0947L4.99792 13ZM6.409 14L8.72483 20.1756C8.79801 20.3707 8.98458 20.5 9.193 20.5H10.023C10.3767 20.5 10.6186 20.1427 10.4872 19.8143L8.16148 14H6.409Z" fill="black"/>
<path fill-rule="evenodd" clip-rule="evenodd" d="M15.5 4.9432C15.5 4.53651 15.0403 4.29995 14.7094 4.53633L9.44222 8.29858C9.25882 8.42958 9.03907 8.50001 8.81369 8.50001H5.75C4.50736 8.50001 3.5 9.50737 3.5 10.75C3.5 11.9926 4.50736 13 5.75 13H8.82881C9.03645 13 9.23972 13.0597 9.41438 13.172L14.7296 16.5889C15.0624 16.8028 15.5 16.5639 15.5 16.1683V4.9432ZM14.1281 3.7226C15.1209 3.01345 16.5 3.72314 16.5 4.9432V16.1683C16.5 17.3551 15.1871 18.0719 14.1889 17.4301L8.87363 14.0132C8.86026 14.0046 8.8447 14 8.82881 14H5.75C3.95507 14 2.5 12.5449 2.5 10.75C2.5 8.95508 3.95507 7.50001 5.75 7.50001H8.81369C8.83065 7.50001 8.84719 7.49471 8.86099 7.48485L14.1281 3.7226Z" fill="black"/>
<path fill-rule="evenodd" clip-rule="evenodd" d="M19.5 11C19.5 10.7239 19.7239 10.5 20 10.5L22 10.5C22.2761 10.5 22.5 10.7239 22.5 11C22.5 11.2761 22.2761 11.5 22 11.5L20 11.5C19.7239 11.5 19.5 11.2761 19.5 11Z" fill="black"/>
<path fill-rule="evenodd" clip-rule="evenodd" d="M20.3536 5.64645C20.1583 5.45118 19.8417 5.45118 19.6464 5.64645L18.6464 6.64645C18.4512 6.84171 18.4512 7.15829 18.6464 7.35355C18.8417 7.54882 19.1583 7.54882 19.3536 7.35355L20.3536 6.35355C20.5488 6.15829 20.5488 5.84171 20.3536 5.64645Z" fill="black"/>
<path fill-rule="evenodd" clip-rule="evenodd" d="M18.6464 14.6464C18.8417 14.4512 19.1583 14.4512 19.3536 14.6464L20.3536 15.6464C20.5488 15.8417 20.5488 16.1583 20.3536 16.3536C20.1583 16.5488 19.8417 16.5488 19.6464 16.3536L18.6464 15.3536C18.4512 15.1583 18.4512 14.8417 18.6464 14.6464Z" fill="black"/>
</svg>
