<svg width="24" height="24" viewBox="0 0 24 24" fill="none" xmlns="http://www.w3.org/2000/svg">
<path d="M11.2615 2.273L2.6033 9.79619C2.38392 9.98681 2.25832 10.2634 2.2592 10.5541L2.2908 21.0024C2.29247 21.5535 2.7397 21.9994 3.2908 21.9994H20.5835C21.1334 21.9994 21.5801 21.5554 21.5835 21.0055L21.6469 10.6279C21.6487 10.3364 21.5232 10.0587 21.3033 9.86735L12.5737 2.27338C12.1976 1.94615 11.6379 1.94599 11.2615 2.273Z" stroke="#1A2027" stroke-width="1.1" stroke-linejoin="round"/>
<path d="M11.9783 11.0153C11.9783 11.0153 13.2875 10.0497 14.2638 9.76053C14.9404 9.56009 15.9187 9.54786 16.4898 9.56156C16.7512 9.56783 16.9527 9.78383 16.9527 10.0452V17.2472C16.9527 17.5233 16.7283 17.7478 16.4523 17.7571C15.8854 17.7763 14.9552 17.8352 14.2997 18.0149C13.332 18.2803 11.9629 19.0832 11.9629 19.0832" stroke="#1A2027" stroke-width="1.1" stroke-linecap="round" stroke-linejoin="round"/>
<path d="M11.928 11.0153C11.928 11.0153 10.6188 10.0497 9.64249 9.76053C8.96582 9.56009 7.98753 9.54786 7.41642 9.56156C7.1551 9.56783 6.95358 9.78383 6.95358 10.0452V17.2472C6.95358 17.5233 7.17796 17.7478 7.45392 17.7571C8.02085 17.7763 8.95104 17.8352 9.60657 18.0149C10.5743 18.2803 11.9434 19.0832 11.9434 19.0832" stroke="#1A2027" stroke-width="1.1" stroke-linecap="round" stroke-linejoin="round"/>
<path d="M12 11.0017V19.0831" stroke="#1A2027" stroke-linecap="round" stroke-linejoin="round"/>
</svg>
