<svg width="24" height="24" viewBox="0 0 24 24" fill="none" xmlns="http://www.w3.org/2000/svg">
<rect x="2.47143" y="4.47143" width="16.0571" height="16.0571" rx="2.67143" fill="white" stroke="black" stroke-width="0.942857"/>
<rect x="5" y="8" width="1.57143" height="1.57143" rx="0.377747" fill="black"/>
<rect x="8.14453" y="8" width="1.57143" height="1.57143" rx="0.377747" fill="black"/>
<rect x="11.2852" y="8" width="1.57143" height="1.57143" rx="0.377747" fill="black"/>
<rect x="14.4297" y="8" width="1.57143" height="1.57143" rx="0.377747" fill="black"/>
<rect x="5" y="11.5713" width="1.57143" height="1.57143" rx="0.377747" fill="black"/>
<rect x="8.14453" y="11.5713" width="1.57143" height="1.57143" rx="0.377747" fill="black"/>
<rect x="11.2852" y="11.5713" width="1.57143" height="1.57143" rx="0.377747" fill="black"/>
<rect x="14.4297" y="11.5713" width="1.57143" height="1.57143" rx="0.377747" fill="black"/>
<rect x="5" y="15.1426" width="1.57143" height="1.57143" rx="0.377747" fill="black"/>
<rect x="8.14453" y="15.1426" width="1.57143" height="1.57143" rx="0.377747" fill="black"/>
<path d="M21.6509 16.0611C21.6509 18.5959 19.596 20.6507 17.0611 20.6507C14.5263 20.6507 12.4714 18.5959 12.4714 16.0611C12.4714 13.5263 14.5263 11.4714 17.0611 11.4714C19.596 11.4714 21.6509 13.5263 21.6509 16.0611Z" fill="white" stroke="black" stroke-width="0.942857"/>
<path d="M17.0039 14.5254V15.9559C17.0039 16.1355 17.0571 16.3111 17.1567 16.4606L17.9138 17.5962" stroke="black" stroke-width="0.942857" stroke-linecap="round"/>
<rect x="5" y="3" width="1.41429" height="3" rx="0.707143" fill="black"/>
<rect x="9.41406" y="3" width="1.41429" height="3" rx="0.707143" fill="black"/>
<rect x="13.8281" y="3" width="1.41429" height="3" rx="0.707143" fill="black"/>
</svg>
