<svg viewBox="0 0 24 24" fill="none" xmlns="http://www.w3.org/2000/svg"><path fill-rule="evenodd" clip-rule="evenodd" d="M5.563 2.757A.5.5 0 016 2.5h12a.5.5 0 01.437.257l5 9a.5.5 0 01.005.476l-5 9.5A.5.5 0 0118 22H6a.5.5 0 01-.442-.267l-5-9.5a.5.5 0 01.005-.476l5-9zm.731.743l-4.726 8.506L6.302 21h11.396l4.734-8.994L17.706 3.5H6.294z" fill="#000"/><path fill-rule="evenodd" clip-rule="evenodd" d="M5.65 13.63c.054.199.4.29.849.248a.5.5 0 00.026.146c.121.362.276.709.46 1.035C7.98 16.813 9.842 18 11.98 18c2.14 0 4.001-1.187 4.995-2.941a5.908 5.908 0 00.507-1.181c.462.047.821-.043.875-.246.072-.266-.41-.627-1.078-.806-.666-.179-1.265-.107-1.336.16-.052.193.187.435.576.622a4.904 4.904 0 01-.414.958C15.278 16.026 13.738 17 11.98 17c-1.757 0-3.297-.974-4.124-2.434a4.9 4.9 0 01-.383-.86.503.503 0 00-.033-.077c.418-.19.68-.445.626-.646-.072-.267-.67-.338-1.337-.16-.667.18-1.15.54-1.078.807zM9.5 7.25a.504.504 0 00-.391.213c-.084.107-.15.247-.2.397-.1.303-.159.706-.159 1.14 0 .434.058.837.16 1.14.05.15.115.29.199.397a.504.504 0 00.391.213.504.504 0 00.391-.213c.084-.107.15-.247.2-.397.1-.303.159-.706.159-1.14 0-.434-.058-.837-.16-1.14-.05-.15-.115-.29-.199-.397A.504.504 0 009.5 7.25zm5 0a.504.504 0 00-.391.213c-.085.107-.15.247-.2.397-.1.303-.159.706-.159 1.14 0 .434.058.837.16 1.14.05.15.114.29.199.397a.504.504 0 00.391.213.504.504 0 00.391-.213c.085-.107.15-.247.2-.397.1-.303.159-.706.159-1.14 0-.434-.058-.837-.16-1.14-.05-.15-.114-.29-.199-.397a.504.504 0 00-.391-.213z" fill="#000"/></svg>