<svg width="64" height="107" viewBox="0 0 64 107" fill="none" xmlns="http://www.w3.org/2000/svg">
<g clip-path="url(#clip0_84_1297)">
<path fill-rule="evenodd" clip-rule="evenodd" d="M36.8643 2.86661C35.0381 0.312041 31.3231 0.312045 29.4969 2.86661C27.6938 5.38883 24.6908 10.1425 22.825 16.1332C19.5302 14.8424 15.9421 13.874 13.0116 13.1991C10.6286 12.6502 8.69397 13.9593 7.78119 15.5327C6.88424 17.0788 6.70652 19.2837 8.01974 21.1059C8.50593 21.7805 8.99859 22.5049 9.47788 23.2684C8.84799 23.2713 8.24568 23.2906 7.67559 23.3216C5.2939 23.4511 3.8146 25.178 3.44738 26.9962C3.0977 28.7275 3.68139 30.7064 5.27312 31.9837C7.83447 34.0391 10.6677 37.0737 11.9883 41.0232C12.429 42.3411 13.0806 43.516 13.8758 44.5532C7.99305 49.8695 4.29191 57.5644 4.29191 66.1229V77.3702C4.29191 93.4217 11.9995 106.434 33.3557 106.434C54.712 106.434 62.4196 93.4217 62.4196 77.3702V66.1229C62.4196 47.9999 57.4995 43.9999 53.9995 41.9999C54.4169 41.4491 54.4381 41.5832 54.4362 41.6225C54.4351 41.6293 54.4349 41.6318 54.4352 41.6313C54.4354 41.6308 54.436 41.6274 54.4362 41.6225C54.442 41.5888 54.4736 41.448 54.6157 41.0232C55.9363 37.0737 58.7695 34.0391 61.3308 31.9837C62.9226 30.7064 63.5063 28.7275 63.1566 26.9962C62.7894 25.178 61.31 23.4511 58.9284 23.3216C58.227 23.2835 57.4768 23.263 56.6864 23.2691C57.2998 22.2408 57.9468 21.2729 58.5834 20.3897C59.8966 18.5675 59.7189 16.3626 58.822 14.8165C57.9092 13.2432 55.9745 11.9341 53.5916 12.4829C50.5845 13.1754 46.8851 14.177 43.5206 15.5188C43.4672 15.5401 43.4139 15.5615 43.3605 15.583C41.487 9.85309 38.613 5.31268 36.8643 2.86661Z" fill="black"/>
<path d="M39.7612 23.8488C39.7612 37.1458 35.5911 47.9251 30.447 47.9251C25.3029 47.9251 21.1328 37.1458 21.1328 23.8488C21.1328 13.9134 26.3329 5.38361 28.9621 1.70581C29.7103 0.659262 31.1837 0.659261 31.9318 1.70581C34.5611 5.38361 39.7612 13.9134 39.7612 23.8488Z" fill="#158F84"/>
<path fill-rule="evenodd" clip-rule="evenodd" d="M31.3598 2.11446C30.892 1.4601 30.0016 1.4601 29.5338 2.11446C26.9302 5.75646 21.8356 14.1369 21.8356 23.8486C21.8356 30.433 22.8693 36.3622 24.5163 40.6195C25.3407 42.7505 26.305 44.4269 27.34 45.5584C28.3746 46.6896 29.4254 47.222 30.4468 47.222C31.4682 47.222 32.519 46.6896 33.5536 45.5584C34.5886 44.4269 35.5529 42.7505 36.3773 40.6195C38.0243 36.3622 39.058 30.433 39.058 23.8486C39.058 14.1369 33.9635 5.75646 31.3598 2.11446ZM28.3901 1.29683C29.4186 -0.14191 31.475 -0.141912 32.5035 1.29683C35.1584 5.01042 40.464 13.6896 40.464 23.8486C40.464 30.5612 39.4126 36.6702 37.6885 41.1268C36.8274 43.3527 35.7847 45.2022 34.591 46.5073C33.397 47.8128 31.9974 48.6279 30.4468 48.6279C28.8962 48.6279 27.4967 47.8128 26.3026 46.5073C25.1089 45.2022 24.0662 43.3527 23.2051 41.1268C21.481 36.6702 20.4297 30.5612 20.4297 23.8486C20.4297 13.6896 25.7353 5.01042 28.3901 1.29683Z" fill="black"/>
<path d="M34.3132 20.0361C29.5335 26.1779 30.7992 37.0158 30.7992 37.0158C34.8525 39.1977 47.1382 37.8545 47.9049 29.4431C48.3611 24.4387 51.1603 19.5414 53.6576 16.0764C54.8471 14.4258 53.4478 11.9273 51.4652 12.3839C45.5806 13.7392 37.2635 16.2449 34.3132 20.0361Z" fill="#1FC1B2"/>
<path fill-rule="evenodd" clip-rule="evenodd" d="M53.1421 13.7927C53.4741 14.3648 53.495 15.0986 53.0865 15.6654C50.5679 19.16 47.6777 24.1835 47.2041 29.3793C46.8579 33.1769 43.9212 35.4549 40.3797 36.5293C38.6197 37.0632 36.756 37.2807 35.0934 37.2332C33.6118 37.191 32.3422 36.94 31.4603 36.5558C31.4582 36.5318 31.4561 36.5068 31.454 36.4807C31.4294 36.1811 31.3993 35.7437 31.3777 35.1986C31.3346 34.1075 31.326 32.5899 31.4637 30.8858C31.7413 27.451 32.6051 23.3746 34.8671 20.4678C36.2192 18.7303 38.8812 17.2126 42.0485 15.9494C45.1851 14.6985 48.6968 13.7427 51.6222 13.0689C52.2534 12.9236 52.8149 13.2287 53.1421 13.7927ZM30.7984 37.0158C30.1002 37.0973 30.1002 37.0971 30.1002 37.0969L30.0998 37.094L30.099 37.0867L30.0961 37.0605C30.0954 37.0544 30.0947 37.0475 30.0939 37.04C30.0917 37.0195 30.089 36.9937 30.0859 36.9627C30.0774 36.8778 30.0658 36.7541 30.0528 36.5955C30.0268 36.2784 29.9953 35.8211 29.9729 35.2542C29.9281 34.1213 29.9191 32.5456 30.0624 30.7725C30.3468 27.2528 31.2401 22.8394 33.7576 19.6043C35.3559 17.5505 38.3276 15.9198 41.5277 14.6436C44.7584 13.3551 48.3475 12.3804 51.3066 11.6989C52.658 11.3876 53.7875 12.1035 54.3582 13.0872C54.9242 14.0628 55.0082 15.4036 54.2271 16.4874C51.7511 19.9228 49.0429 24.6939 48.6042 29.5069C48.1836 34.1207 44.5941 36.72 40.7878 37.8746C38.8739 38.4552 36.8583 38.6901 35.0533 38.6386C33.263 38.5875 31.6128 38.2525 30.4652 37.6348L30.1427 37.4612L30.1002 37.0973L30.7984 37.0158Z" fill="black"/>
<path d="M26.8246 20.7524C31.6043 26.8942 30.3394 35.6902 30.3394 35.6902C26.2861 37.8721 13.9996 38.5708 13.2329 30.1594C12.7767 25.155 9.97748 20.2577 7.48022 16.7927C6.29068 15.1422 7.68998 12.6436 9.67261 13.1003C15.5572 14.4555 23.8743 16.9612 26.8246 20.7524Z" fill="#1FC1B2"/>
<path fill-rule="evenodd" clip-rule="evenodd" d="M7.99385 14.509C7.66192 15.0812 7.641 15.8149 8.04946 16.3817C10.568 19.8763 13.4583 24.8998 13.9319 30.0956C14.1062 32.0082 14.9244 33.3696 16.1035 34.3351C17.3008 35.3154 18.9056 35.9142 20.6667 36.2037C22.4232 36.4924 24.291 36.4659 25.9666 36.2331C27.4651 36.0249 28.7697 35.6574 29.6838 35.2319C29.6838 35.2314 29.6839 35.2308 29.6839 35.2303C29.7081 34.9887 29.7379 34.6334 29.7592 34.1864C29.8018 33.2916 29.8104 32.0343 29.6735 30.5908C29.3987 27.6917 28.5438 24.1074 26.2688 21.1841C24.9168 19.4467 22.2548 17.929 19.0875 16.6658C15.9509 15.4148 12.4392 14.459 9.51379 13.7853C8.88255 13.6399 8.32108 13.945 7.99385 14.509ZM30.3384 35.6902C31.0342 35.7903 31.0342 35.79 31.0343 35.7897L31.0344 35.789L31.0347 35.7869L31.0356 35.7804L31.0386 35.7578C31.0412 35.7386 31.0448 35.7111 31.0491 35.6756C31.0579 35.6047 31.0697 35.502 31.0829 35.3702C31.1092 35.1068 31.1409 34.727 31.1635 34.2533C31.2086 33.3069 31.2176 31.9814 31.0732 30.4581C30.7855 27.4239 29.8831 23.5392 27.3784 20.3207C25.7801 18.2669 22.8083 16.6361 19.6083 15.3599C16.3776 14.0714 12.7885 13.0967 9.82933 12.4152C8.47794 12.104 7.34846 12.8198 6.77777 13.8035C6.21177 14.7791 6.12782 16.1199 6.9089 17.2037C9.38483 20.6391 12.0931 25.4103 12.5318 30.2232C12.7408 32.5163 13.746 34.2219 15.2129 35.4229C16.6616 36.6091 18.5255 37.2764 20.4386 37.5909C22.3562 37.9062 24.368 37.8746 26.1601 37.6256C27.9435 37.3778 29.56 36.9075 30.6716 36.3092L30.9837 36.1412L31.0342 35.7903L30.3384 35.6902Z" fill="black"/>
<path d="M38.0712 28.1192C32.2688 32.2663 29.9872 34.7973 29.9872 44.463C33.4309 47.5176 46.6403 45.4437 49.3187 37.4333C50.8685 32.7984 54.1352 29.366 56.9056 27.1429C58.4221 25.9259 57.9896 23.3934 56.0481 23.2879C51.3295 23.0313 44.33 23.6459 38.0712 28.1192Z" fill="#3AEDDC"/>
<path fill-rule="evenodd" clip-rule="evenodd" d="M57.0856 24.9377C57.1978 25.4932 57.0085 26.1598 56.4668 26.5945C53.642 28.8613 50.2625 32.3972 48.6531 37.2103C47.4206 40.8963 43.7169 43.3111 39.7516 44.4205C37.7855 44.9705 35.8067 45.1826 34.1287 45.078C32.6032 44.983 31.4171 44.6326 30.6922 44.1238C30.7187 39.5336 31.2887 36.712 32.4705 34.5599C33.6826 32.3529 35.5832 30.7621 38.481 28.691C44.5601 24.3462 51.3773 23.7377 56.011 23.9897C56.6165 24.0226 56.9783 24.4063 57.0856 24.9377ZM58.4637 24.6593C58.2485 23.5938 57.4233 22.6585 56.0873 22.5858C51.2837 22.3246 44.1021 22.9454 37.6635 27.5472C34.7589 29.6232 32.6176 31.3715 31.2382 33.8831C29.8575 36.3973 29.2853 39.5884 29.2853 44.4629L29.2853 44.779L29.5218 44.9887C30.5568 45.9068 32.218 46.3676 34.0413 46.4812C35.8923 46.5966 38.0289 46.3623 40.1304 45.7744C44.3003 44.6078 48.5405 41.9805 49.9864 37.6561C51.4766 33.1995 54.6306 29.8705 57.3467 27.691C58.3214 26.9088 58.674 25.7007 58.4637 24.6593Z" fill="black"/>
<path d="M23.0655 28.1192C28.8679 32.2663 31.1495 34.7973 31.1495 44.463C27.7058 47.5176 14.4964 45.4437 11.818 37.4333C10.2683 32.7984 7.00151 29.366 4.23108 27.1429C2.7146 25.9259 3.14713 23.3934 5.08864 23.2879C9.80727 23.0313 16.8067 23.6459 23.0655 28.1192Z" fill="#3AEDDC"/>
<path fill-rule="evenodd" clip-rule="evenodd" d="M4.05304 24.9377C3.94084 25.4932 4.1302 26.1598 4.67191 26.5945C7.49671 28.8613 10.8762 32.3972 12.4856 37.2103C13.7181 40.8963 17.4217 43.3111 21.387 44.4205C23.3532 44.9705 25.332 45.1826 27.0099 45.078C28.5354 44.983 29.7215 44.6326 30.4465 44.1238C30.42 39.5336 29.85 36.712 28.6681 34.5599C27.4561 32.3529 25.5554 30.7621 22.6576 28.691C16.5786 24.3462 9.76132 23.7377 5.12769 23.9897C4.52214 24.0226 4.16035 24.4063 4.05304 24.9377ZM2.67495 24.6593C2.89016 23.5938 3.71539 22.6585 5.05135 22.5858C9.85497 22.3246 17.0366 22.9454 23.4751 27.5472C26.3797 29.6232 28.5211 31.3715 29.9004 33.8831C31.2811 36.3973 31.8534 39.5884 31.8534 44.4629L31.8534 44.779L31.6169 44.9887C30.5818 45.9068 28.9207 46.3676 27.0974 46.4812C25.2464 46.5966 23.1097 46.3623 21.0083 45.7744C16.8384 44.6078 12.5981 41.9805 11.1522 37.6561C9.66206 33.1995 6.50807 29.8705 3.792 27.691C2.81724 26.9088 2.46462 25.7007 2.67495 24.6593Z" fill="black"/>
<path d="M3.55859 58.8208C3.55859 46.3974 13.6298 36.3262 26.0532 36.3262H35.1916C47.6151 36.3262 57.6862 46.3974 57.6862 58.8208V79.2065C57.6862 91.63 47.6151 101.701 35.1916 101.701H26.0532C13.6298 101.701 3.55859 91.63 3.55859 79.2065V58.8208Z" fill="#FFD276"/>
<path fill-rule="evenodd" clip-rule="evenodd" d="M2.85547 58.8206C2.85547 46.009 13.2414 35.623 26.0531 35.623H35.1915C48.0032 35.623 58.3891 46.009 58.3891 58.8206V79.2064C58.3891 92.018 48.0032 102.404 35.1915 102.404H26.0531C13.2414 102.404 2.85547 92.018 2.85547 79.2064V58.8206ZM26.0531 37.029C14.0178 37.029 4.26138 46.7854 4.26138 58.8206V79.2064C4.26138 91.2416 14.0178 100.998 26.0531 100.998H35.1915C47.2267 100.998 56.9832 91.2416 56.9832 79.2064V58.8206C56.9832 46.7854 47.2267 37.029 35.1915 37.029H26.0531Z" fill="black"/>
<path d="M31.3258 50.7366C31.3258 51.1249 31.0111 51.4396 30.6229 51.4396C30.2346 51.4396 29.9199 51.1249 29.9199 50.7366C29.9199 50.3484 30.2346 50.0337 30.6229 50.0337C31.0111 50.0337 31.3258 50.3484 31.3258 50.7366Z" fill="black"/>
<path d="M16.9157 64.4447C16.9157 64.8329 16.601 65.1476 16.2127 65.1476C15.8245 65.1476 15.5098 64.8329 15.5098 64.4447C15.5098 64.0564 15.8245 63.7417 16.2127 63.7417C16.601 63.7417 16.9157 64.0564 16.9157 64.4447Z" fill="black"/>
<path d="M45.3844 64.4447C45.3844 64.8329 45.0697 65.1476 44.6815 65.1476C44.2932 65.1476 43.9785 64.8329 43.9785 64.4447C43.9785 64.0564 44.2932 63.7417 44.6815 63.7417C45.0697 63.7417 45.3844 64.0564 45.3844 64.4447Z" fill="black"/>
<path d="M31.3258 78.8548C31.3258 79.243 31.0111 79.5578 30.6229 79.5578C30.2346 79.5578 29.9199 79.243 29.9199 78.8548C29.9199 78.4666 30.2346 78.1519 30.6229 78.1519C31.0111 78.1519 31.3258 78.4666 31.3258 78.8548Z" fill="black"/>
<path d="M17.6188 92.9144C17.6188 93.3026 17.3041 93.6173 16.9158 93.6173C16.5276 93.6173 16.2129 93.3026 16.2129 92.9144C16.2129 92.5262 16.5276 92.2114 16.9158 92.2114C17.3041 92.2114 17.6188 92.5262 17.6188 92.9144Z" fill="black"/>
<path d="M45.3844 92.9144C45.3844 93.3026 45.0697 93.6173 44.6815 93.6173C44.2932 93.6173 43.9785 93.3026 43.9785 92.9144C43.9785 92.5262 44.2932 92.2114 44.6815 92.2114C45.0697 92.2114 45.3844 92.5262 45.3844 92.9144Z" fill="black"/>
<mask id="mask0_84_1297" style="mask-type:alpha" maskUnits="userSpaceOnUse" x="3" y="36" width="55" height="66">
<path d="M3.55859 60.3262C3.55859 47.0713 14.3038 36.3262 27.5586 36.3262H33.6863C46.9411 36.3262 57.6862 47.0713 57.6862 60.3262V77.7012C57.6862 90.956 46.9411 101.701 33.6862 101.701H27.5586C14.3037 101.701 3.55859 90.956 3.55859 77.7012V60.3262Z" fill="#FFD276"/>
</mask>
<g mask="url(#mask0_84_1297)">
<path fill-rule="evenodd" clip-rule="evenodd" d="M80.8229 87.2301L26.3438 32.751L27.3379 31.7568L81.817 86.236L80.8229 87.2301Z" fill="black"/>
<path fill-rule="evenodd" clip-rule="evenodd" d="M62.8991 97.423L8.41993 42.9438L9.41406 41.9497L63.8932 96.4289L62.8991 97.423Z" fill="black"/>
<path fill-rule="evenodd" clip-rule="evenodd" d="M46.7311 107.616L-7.74804 53.1367L-6.75391 52.1426L47.7252 106.622L46.7311 107.616Z" fill="black"/>
<path fill-rule="evenodd" clip-rule="evenodd" d="M-19.6999 87.2301L34.7793 32.751L33.7852 31.7568L-20.694 86.236L-19.6999 87.2301Z" fill="black"/>
<path fill-rule="evenodd" clip-rule="evenodd" d="M-1.77406 97.423L52.7051 42.9438L51.7109 41.9497L-2.7682 96.4289L-1.77406 97.423Z" fill="black"/>
<path fill-rule="evenodd" clip-rule="evenodd" d="M14.7455 107.616L69.2246 53.1367L68.2305 52.1426L13.7513 106.622L14.7455 107.616Z" fill="black"/>
</g>
</g>
<defs>
<clipPath id="clip0_84_1297">
<rect width="64" height="106.819" fill="white"/>
</clipPath>
</defs>
</svg>
