<svg width="189" height="190" viewBox="0 0 189 190" fill="none" xmlns="http://www.w3.org/2000/svg">
<path fill-rule="evenodd" clip-rule="evenodd" d="M96.5564 145.944C112.481 139.499 121.469 122.042 116.909 105.023C111.975 86.6076 93.046 75.679 74.6306 80.6134C57.6115 85.1737 46.987 101.687 49.3686 118.701C52.7665 112.103 58.8285 106.909 66.5611 104.837C81.1115 100.938 96.0676 109.573 99.9664 124.123C102.038 131.856 100.571 139.703 96.5564 145.944Z" fill="black"/>
<path fill-rule="evenodd" clip-rule="evenodd" d="M100.547 142.004C112.71 134.647 119.09 119.894 115.226 105.474C110.541 87.9882 92.5674 77.6113 75.0816 82.2966C60.6616 86.1605 51.0749 99.0628 50.7856 113.275C54.5275 108.496 59.7956 104.845 66.1101 103.153C81.5901 99.0055 97.5017 108.192 101.65 123.672C103.342 129.986 102.814 136.374 100.547 142.004ZM99.3032 144.689C113.495 137.439 121.2 121.037 116.909 105.023C111.975 86.6076 93.046 75.679 74.6306 80.6134C58.6164 84.9044 48.2639 99.7783 49.0814 115.694C49.1327 116.693 49.228 117.696 49.3686 118.701C49.8182 117.828 50.3144 116.979 50.8549 116.16C54.3999 110.783 59.8516 106.634 66.5611 104.837C81.1115 100.938 96.0676 109.573 99.9664 124.123C101.764 130.832 100.897 137.628 98.0137 143.386C97.574 144.264 97.0875 145.118 96.5564 145.944C97.4966 145.563 98.4127 145.144 99.3032 144.689Z" fill="black"/>
<path fill-rule="evenodd" clip-rule="evenodd" d="M80.9266 132.754C117.985 122.824 139.977 84.7331 130.047 47.6749C129.173 44.4125 128.08 41.2668 126.79 38.2494C123.531 38.6402 120.261 39.267 116.998 40.1412C79.94 50.0709 57.9481 88.1621 67.8778 125.22C68.7519 128.483 69.8444 131.628 71.1351 134.646C74.3937 134.255 77.6642 133.628 80.9266 132.754Z" fill="black"/>
<path fill-rule="evenodd" clip-rule="evenodd" d="M80.4756 131.071C116.604 121.39 138.044 84.2545 128.364 48.1259C127.628 45.379 126.733 42.7176 125.693 40.1488C122.948 40.5323 120.196 41.0883 117.449 41.8244C81.3206 51.505 59.8804 88.6407 69.561 124.769C70.297 127.516 71.1915 130.178 72.2318 132.746C74.9766 132.363 77.7286 131.807 80.4756 131.071ZM71.1351 134.646C69.8444 131.628 68.7519 128.483 67.8778 125.22C57.9481 88.1621 79.94 50.0709 116.998 40.1412C120.261 39.267 123.531 38.6402 126.79 38.2494C128.08 41.2668 129.173 44.4125 130.047 47.6749C139.977 84.7331 117.985 122.824 80.9266 132.754C77.6642 133.628 74.3937 134.255 71.1351 134.646Z" fill="black"/>
<path fill-rule="evenodd" clip-rule="evenodd" d="M132.425 64.6293L101.128 46.56C106.027 43.8319 111.337 41.6572 117 40.1399C120.262 39.2657 123.533 38.639 126.791 38.2481C128.082 41.2655 129.174 44.4112 130.049 47.6737C131.566 53.3361 132.338 59.0227 132.425 64.6293Z" fill="black"/>
<path fill-rule="evenodd" clip-rule="evenodd" d="M132.425 64.6293C132.414 63.9477 132.393 63.265 132.362 62.5812C132.139 57.6405 131.381 52.6478 130.049 47.6737C129.174 44.4112 128.082 41.2655 126.791 38.2481C123.533 38.639 120.262 39.2657 117 40.1399C112.026 41.4727 107.323 43.3129 102.932 45.5898C102.325 45.9049 101.723 46.2284 101.128 46.56L132.425 64.6293ZM130.562 61.5416C130.286 57.0912 129.565 52.601 128.365 48.1247C127.629 45.3777 126.735 42.7163 125.695 40.1476C122.95 40.531 120.198 41.0871 117.451 41.8231C112.974 43.0225 108.725 44.6428 104.733 46.6294L130.562 61.5416Z" fill="black"/>
<g filter="url(#filter0_d_11744_1704)">
<path d="M120.739 72.2279C123.115 81.0946 117.853 90.2084 108.986 92.5843C100.12 94.9601 91.0057 89.6982 88.6299 80.8315C86.2541 71.9648 91.516 62.851 100.383 60.4752C109.249 58.0994 118.363 63.3612 120.739 72.2279Z" fill="black"/>
</g>
<g filter="url(#filter1_d_11744_1704)">
<path fill-rule="evenodd" clip-rule="evenodd" d="M108.535 90.901C116.472 88.7743 121.183 80.616 119.056 72.6789C116.929 64.7419 108.771 60.0317 100.834 62.1584C92.8966 64.2851 88.1864 72.4434 90.3131 80.3805C92.4399 88.3176 100.598 93.0278 108.535 90.901ZM108.986 92.5843C117.853 90.2084 123.115 81.0946 120.739 72.2279C118.363 63.3612 109.249 58.0994 100.383 60.4752C91.516 62.851 86.2541 71.9648 88.6299 80.8315C91.0057 89.6982 100.12 94.9601 108.986 92.5843Z" fill="black"/>
</g>
<path d="M114.153 73.9927C115.554 79.2217 112.451 84.5965 107.222 85.9977C101.993 87.3988 96.6178 84.2956 95.2166 79.0666C93.8155 73.8375 96.9187 68.4627 102.148 67.0616C107.377 65.6604 112.752 68.7636 114.153 73.9927Z" fill="black"/>
<path fill-rule="evenodd" clip-rule="evenodd" d="M102.37 67.9033C97.6058 69.1799 94.7785 74.077 96.0551 78.8413C97.3316 83.6055 102.229 86.4328 106.993 85.1563C111.757 83.8797 114.585 78.9826 113.308 74.2184C112.031 69.4541 107.134 66.6268 102.37 67.9033ZM94.3718 79.2923C92.8462 73.5984 96.2252 67.7458 101.919 66.2201C107.613 64.6945 113.466 68.0735 114.991 73.7673C116.517 79.4612 113.138 85.3138 107.444 86.8395C101.75 88.3651 95.8975 84.9861 94.3718 79.2923Z" fill="black"/>
<path fill-rule="evenodd" clip-rule="evenodd" d="M66.0617 112.029C61.4295 117.544 58.2623 125.447 60.1956 136.071C60.9553 136.161 62.842 136.068 64.3122 134.968C63.3543 137.43 62.0164 143.525 64.328 148.2C70.0105 148.001 75.7952 141.597 75.7952 141.597C75.7414 142.494 75.8043 144.595 76.4866 145.824C81.4694 144.729 90.0781 140.453 94.5143 127.814C90.3511 116.222 78.1842 109.411 66.0617 112.029Z" fill="black"/>
<path fill-rule="evenodd" clip-rule="evenodd" d="M65.5799 111.24L65.8714 111.177C78.4224 108.467 91.0175 115.518 95.3279 127.519L95.4325 127.81L95.33 128.102C90.7818 141.06 81.9075 145.523 76.6673 146.675L76.0334 146.815L75.7184 146.247C75.295 145.485 75.0921 144.519 74.9933 143.689C74.9905 143.666 74.9877 143.642 74.9851 143.619C74.3787 144.177 73.6045 144.846 72.7107 145.52C70.5208 147.171 67.4723 148.962 64.352 149.071L63.7899 149.09L63.5406 148.586C62.292 146.061 62.0471 143.198 62.2184 140.695C62.3207 139.198 62.5738 137.801 62.8696 136.64C61.7257 136.989 60.6546 137.004 60.086 136.936L59.4472 136.86L59.332 136.227C57.3485 125.328 60.6028 117.166 65.3881 111.469L65.5799 111.24ZM75.1425 141.013L76.8074 139.17L76.6585 141.65C76.6345 142.05 76.6359 142.747 76.7236 143.483C76.7805 143.96 76.8694 144.415 76.9927 144.803C81.7645 143.537 89.4379 139.329 93.5816 127.818C89.5027 116.905 78.0267 110.486 66.5313 112.819C62.2562 118.02 59.3262 125.37 60.9268 135.22C61.7081 135.184 62.8598 134.961 63.7838 134.27L66.2213 132.447L65.1178 135.284C64.6696 136.436 64.1159 138.489 63.9569 140.814C63.8104 142.954 64.0032 145.258 64.8612 147.286C67.2474 147.016 69.6955 145.611 71.6616 144.128C72.7062 143.341 73.5808 142.558 74.194 141.971C74.5002 141.679 74.74 141.436 74.9021 141.268C74.9831 141.184 75.0445 141.119 75.0851 141.075L75.1299 141.027L75.1402 141.016L75.1425 141.013Z" fill="black"/>
<path fill-rule="evenodd" clip-rule="evenodd" d="M74.2261 111.647C68.0686 115.922 62.4744 122.252 63.9291 130.216C64.1758 130.246 65.0665 129.88 66.1554 129.433C67.7512 128.777 69.7726 127.947 70.8169 127.93C70.7292 128.155 70.602 128.459 70.4485 128.826C69.2603 131.668 66.4902 138.293 68.1288 141.606C72.6786 141.447 79.3593 131.818 79.3593 131.818C79.3161 132.535 79.5636 138.575 80.1098 139.558C84.4659 138.601 88.3251 132.509 91.2192 121.592C87.183 116.08 81.0015 112.466 74.2261 111.647Z" fill="black"/>
<path fill-rule="evenodd" clip-rule="evenodd" d="M73.9913 110.742L74.3205 110.782C81.335 111.63 87.7332 115.37 91.912 121.077L92.1578 121.413L92.0512 121.815C90.5927 127.317 88.8769 131.661 86.9423 134.77C85.0172 137.864 82.7974 139.857 80.2867 140.409L79.6529 140.549L79.3379 139.981C79.2051 139.742 79.1202 139.436 79.0589 139.165C78.9925 138.871 78.9342 138.525 78.8828 138.155C78.7797 137.412 78.6973 136.521 78.6343 135.651C78.6021 135.207 78.5745 134.76 78.5516 134.335C77.8849 135.181 77.0343 136.209 76.0805 137.243C74.942 138.477 73.6371 139.741 72.3069 140.713C71.0015 141.667 69.5543 142.428 68.1491 142.477L67.587 142.497L67.3376 141.993C66.8376 140.982 66.7011 139.782 66.7521 138.574C66.8035 137.359 67.0485 136.065 67.3756 134.818C67.9392 132.67 68.7698 130.575 69.3676 129.131C69.2406 129.172 69.1079 129.216 68.97 129.265C68.1607 129.547 67.2787 129.909 66.4762 130.239L66.463 130.244C65.9289 130.463 65.4222 130.672 65.0177 130.821C64.8143 130.896 64.619 130.963 64.4486 131.009C64.3224 131.044 64.0674 131.112 63.8159 131.082L63.1773 131.005L63.0618 130.373C61.5081 121.867 67.5073 115.244 73.719 110.931L73.9913 110.742ZM78.6333 131.321L80.4055 128.766L80.2188 131.87C80.2012 132.163 80.2471 133.796 80.3724 135.525C80.4341 136.378 80.5133 137.226 80.6089 137.915C80.6371 138.118 80.6661 138.303 80.6958 138.468C82.2892 137.842 83.9021 136.358 85.4628 133.85C87.2249 131.018 88.8477 126.992 90.2582 121.775C86.4285 116.732 80.7103 113.401 74.4396 112.554C68.7192 116.595 63.884 122.227 64.6361 129.102C64.9691 128.974 65.368 128.81 65.8142 128.627L65.8251 128.622C66.616 128.297 67.538 127.919 68.3955 127.619C69.2253 127.33 70.1132 127.07 70.7921 127.058L72.0893 127.037L71.6187 128.246C71.527 128.481 71.3965 128.793 71.2467 129.152L71.2422 129.162C70.6462 130.588 69.6799 132.902 69.0612 135.261C68.752 136.439 68.5374 137.601 68.4932 138.648C68.4606 139.42 68.5221 140.092 68.6823 140.651C69.4367 140.47 70.3169 140.009 71.2788 139.306C72.4809 138.428 73.6992 137.254 74.7996 136.061C75.8964 134.872 76.8568 133.685 77.5439 132.793C77.887 132.348 78.1609 131.977 78.3483 131.719C78.442 131.591 78.514 131.49 78.5622 131.422L78.6164 131.345L78.6296 131.326L78.6333 131.321Z" fill="black"/>
<path d="M87.846 115.691C82.9032 124.252 75.2055 129.061 75.2055 129.061C75.2055 129.061 75.5216 119.99 80.4644 111.429C85.4071 102.868 93.1049 98.0584 93.1049 98.0584C93.1049 98.0584 92.7887 107.129 87.846 115.691Z" fill="black"/>
<path fill-rule="evenodd" clip-rule="evenodd" d="M78.5108 124.287C80.9636 122.095 83.9856 118.892 86.3368 114.819C88.6881 110.747 89.9508 106.528 90.6231 103.308C90.7278 102.807 90.8178 102.331 90.8953 101.885C90.548 102.175 90.1811 102.491 89.7995 102.832C87.3467 105.025 84.3247 108.228 81.9735 112.3C79.6223 116.373 78.3595 120.591 77.6872 123.812C77.5826 124.313 77.4925 124.788 77.415 125.234C77.7623 124.944 78.1292 124.628 78.5108 124.287ZM77.0592 127.747C75.9224 128.613 75.2055 129.061 75.2055 129.061C75.2055 129.061 75.2349 128.216 75.4163 126.799C75.8293 123.572 77.03 117.377 80.4644 111.429C83.8987 105.48 88.663 101.343 91.2511 99.3721C92.3879 98.5063 93.1049 98.0584 93.1049 98.0584C93.1049 98.0584 93.0754 98.9032 92.894 100.321C92.481 103.548 91.2803 109.742 87.846 115.691C84.4116 121.639 79.6473 125.776 77.0592 127.747Z" fill="black"/>
<mask id="mask0_11744_1704" style="mask-type:luminance" maskUnits="userSpaceOnUse" x="30" y="15" width="132" height="153">
<path d="M161.235 52.5391L97.5312 15.7596L30.9777 131.034L94.6817 167.813L161.235 52.5391Z" fill="white"/>
</mask>
<g mask="url(#mask0_11744_1704)">
<path fill-rule="evenodd" clip-rule="evenodd" d="M96.5926 142.166C112.598 135.689 121.632 118.143 117.048 101.038C112.089 82.5293 93.0644 71.5455 74.5559 76.5048C57.4507 81.0882 46.7724 97.6846 49.166 114.785C52.5811 108.154 58.6738 102.933 66.4455 100.851C81.0696 96.932 96.1013 105.611 100.02 120.235C102.102 128.006 100.627 135.893 96.5926 142.166Z" fill="#625CE4"/>
<path fill-rule="evenodd" clip-rule="evenodd" d="M100.603 138.206C112.828 130.812 119.24 115.984 115.357 101.491C110.648 83.9169 92.5834 73.4876 75.0092 78.1966C60.5162 82.0799 50.8809 95.0476 50.5902 109.331C54.351 104.529 59.6457 100.859 65.9922 99.1588C81.5506 94.99 97.5427 104.223 101.712 119.781C103.412 126.128 102.882 132.548 100.603 138.206ZM99.3533 140.905C113.617 133.618 121.361 117.133 117.048 101.038C112.089 82.5293 93.0644 71.5455 74.5559 76.5048C58.4606 80.8176 48.0557 95.7667 48.8774 111.763C48.9289 112.767 49.0247 113.775 49.166 114.785C49.6179 113.907 50.1166 113.055 50.6599 112.231C54.2228 106.827 59.702 102.657 66.4455 100.851C81.0696 96.932 96.1013 105.611 100.02 120.235C101.827 126.978 100.955 133.808 98.0573 139.595C97.6154 140.478 97.1264 141.336 96.5926 142.166C97.5376 141.783 98.4583 141.362 99.3533 140.905Z" fill="black"/>
<path fill-rule="evenodd" clip-rule="evenodd" d="M80.8805 128.909C118.126 118.929 140.229 80.6455 130.249 43.3998C129.371 40.1208 128.273 36.9592 126.976 33.9265C123.701 34.3194 120.414 34.9493 117.135 35.8279C79.8889 45.8078 57.7857 84.0918 67.7656 121.337C68.6442 124.616 69.7422 127.778 71.0395 130.811C74.3145 130.418 77.6015 129.788 80.8805 128.909Z" fill="#FFF6EE"/>
<path fill-rule="evenodd" clip-rule="evenodd" d="M80.4272 127.218C116.739 117.488 138.287 80.1644 128.558 43.8531C127.818 41.0922 126.919 38.4174 125.873 35.8356C123.115 36.221 120.349 36.7799 117.588 37.5196C81.2765 47.2492 59.7277 84.5728 69.4573 120.884C70.1971 123.645 71.0961 126.32 72.1417 128.902C74.9003 128.516 77.6663 127.957 80.4272 127.218ZM71.0395 130.811C69.7422 127.778 68.6442 124.616 67.7656 121.337C57.7857 84.0918 79.8889 45.8078 117.135 35.8279C120.414 34.9493 123.701 34.3194 126.976 33.9265C128.273 36.9592 129.371 40.1208 130.249 43.3998C140.229 80.6455 118.126 118.929 80.8805 128.909C77.6015 129.788 74.3145 130.418 71.0395 130.811Z" fill="black"/>
<path fill-rule="evenodd" clip-rule="evenodd" d="M132.64 60.4398L101.185 42.2791C106.109 39.5372 111.446 37.3514 117.137 35.8265C120.416 34.9479 123.703 34.318 126.978 33.9251C128.276 36.9578 129.374 40.1194 130.252 43.3984C131.777 49.0895 132.553 54.8049 132.64 60.4398Z" fill="#625CE4"/>
<path fill-rule="evenodd" clip-rule="evenodd" d="M132.64 60.4398C132.63 59.7548 132.609 59.0686 132.578 58.3814C132.353 53.4157 131.592 48.3977 130.252 43.3984C129.374 40.1194 128.276 36.9578 126.978 33.9251C123.703 34.318 120.416 34.9479 117.137 35.8265C112.138 37.1661 107.412 39.0155 102.999 41.304C102.388 41.6207 101.784 41.9458 101.185 42.2791L132.64 60.4398ZM130.768 57.3365C130.491 52.8636 129.766 48.3507 128.561 43.8517C127.821 41.0908 126.922 38.416 125.876 35.8342C123.118 36.2196 120.352 36.7785 117.591 37.5182C113.092 38.7237 108.821 40.3522 104.809 42.3489L130.768 57.3365Z" fill="black"/>
<g filter="url(#filter2_d_11744_1704)">
<path d="M120.9 68.077C123.288 76.9886 117.999 86.1485 109.088 88.5364C100.176 90.9242 91.0161 85.6357 88.6283 76.7242C86.2404 67.8126 91.5289 58.6527 100.44 56.2648C109.352 53.877 118.512 59.1655 120.9 68.077Z" fill="#FFF6EE"/>
</g>
<g filter="url(#filter3_d_11744_1704)">
<path fill-rule="evenodd" clip-rule="evenodd" d="M108.634 86.8446C116.612 84.7071 121.346 76.5075 119.208 68.5303C117.071 60.5531 108.871 55.819 100.894 57.9565C92.9165 60.094 88.1825 68.2936 90.32 76.2709C92.4575 84.2481 100.657 88.9821 108.634 86.8446ZM109.088 88.5364C117.999 86.1485 123.288 76.9886 120.9 68.077C118.512 59.1655 109.352 53.877 100.44 56.2648C91.5289 58.6527 86.2404 67.8126 88.6283 76.7242C91.0161 85.6357 100.176 90.9242 109.088 88.5364Z" fill="black"/>
</g>
<path d="M114.285 69.8508C115.693 75.1063 112.574 80.5083 107.319 81.9165C102.063 83.3247 96.6611 80.2059 95.2529 74.9504C93.8447 69.6948 96.9636 64.2928 102.219 62.8846C107.475 61.4764 112.877 64.5952 114.285 69.8508Z" fill="#AFEEFF"/>
<path fill-rule="evenodd" clip-rule="evenodd" d="M102.44 63.7303C97.6518 65.0134 94.8101 69.9352 96.0932 74.7236C97.3762 79.512 102.298 82.3536 107.086 81.0706C111.875 79.7875 114.716 74.8657 113.433 70.0773C112.15 65.2889 107.228 62.4473 102.44 63.7303ZM94.4014 75.1769C92.8681 69.4542 96.2641 63.572 101.987 62.0386C107.71 60.5052 113.592 63.9013 115.125 69.624C116.658 75.3467 113.262 81.2289 107.54 82.7623C101.817 84.2957 95.9348 80.8996 94.4014 75.1769Z" fill="black"/>
<path fill-rule="evenodd" clip-rule="evenodd" d="M65.9402 108.08C61.2845 113.623 58.1012 121.566 60.0444 132.243C60.8078 132.334 62.7042 132.24 64.1817 131.134C63.219 133.61 61.8744 139.735 64.1977 144.433C69.9089 144.234 75.7229 137.798 75.7229 137.798C75.6688 138.699 75.732 140.811 76.4178 142.046C81.4258 140.945 90.078 136.647 94.5367 123.944C90.3524 112.294 78.124 105.449 65.9402 108.08Z" fill="#DE409F"/>
<path fill-rule="evenodd" clip-rule="evenodd" d="M65.4694 107.287L65.7624 107.224C78.3769 104.5 91.0357 111.586 95.3679 123.648L95.473 123.941L95.37 124.234C90.7988 137.258 81.8796 141.744 76.6128 142.901L75.9758 143.041L75.6592 142.471C75.2337 141.705 75.0297 140.733 74.9304 139.9C74.9276 139.877 74.9248 139.853 74.9222 139.829C74.3127 140.391 73.5346 141.063 72.6362 141.74C70.4352 143.399 67.3713 145.199 64.2353 145.309L63.6703 145.328L63.4197 144.822C62.1648 142.284 61.9188 139.406 62.0908 136.89C62.1937 135.386 62.4481 133.982 62.7454 132.815C61.5957 133.166 60.5192 133.181 59.9477 133.113L59.3056 133.036L59.1899 132.4C57.1964 121.446 60.4671 113.243 65.2766 107.516L65.4694 107.287ZM75.0803 137.21L76.7537 135.358L76.6041 137.85C76.5799 138.252 76.5813 138.953 76.6695 139.693C76.7266 140.172 76.816 140.63 76.9399 141.02C81.7359 139.747 89.4481 135.518 93.6128 123.949C89.5132 112.98 77.9792 106.529 66.4256 108.874C62.1288 114.101 59.1841 121.488 60.7928 131.388C61.578 131.352 62.7355 131.128 63.6642 130.433L66.114 128.6L65.0049 131.452C64.5545 132.61 63.998 134.673 63.8382 137.01C63.691 139.162 63.8847 141.477 64.747 143.515C67.1453 143.243 69.6058 141.831 71.5819 140.341C72.6318 139.55 73.5108 138.763 74.1271 138.174C74.4348 137.879 74.6758 137.636 74.8387 137.467C74.9201 137.382 74.9819 137.317 75.0226 137.273L75.0678 137.224L75.0781 137.213L75.0801 137.211L75.0803 137.21Z" fill="black"/>
<path fill-rule="evenodd" clip-rule="evenodd" d="M74.142 107.696C67.9533 111.993 62.3308 118.355 63.7929 126.359C64.0408 126.388 64.936 126.021 66.0304 125.571C67.6342 124.913 69.666 124.078 70.7155 124.061C70.6273 124.287 70.4996 124.593 70.3452 124.962C69.151 127.818 66.3669 134.476 68.0138 137.807C72.5867 137.646 79.3011 127.968 79.3011 127.968C79.2577 128.69 79.5065 134.76 80.0554 135.748C84.4335 134.786 88.3123 128.664 91.221 117.691C87.1644 112.151 80.9517 108.519 74.142 107.696Z" fill="#FDD47F"/>
<path fill-rule="evenodd" clip-rule="evenodd" d="M73.9196 106.786L74.2504 106.826C81.3004 107.679 87.731 111.438 91.9309 117.174L92.178 117.511L92.0708 117.916C90.6049 123.445 88.8805 127.811 86.9361 130.936C85.0012 134.046 82.7702 136.049 80.2468 136.603L79.6098 136.744L79.2932 136.173C79.1597 135.933 79.0744 135.625 79.0128 135.353C78.946 135.058 78.8875 134.71 78.8358 134.337C78.7322 133.591 78.6494 132.696 78.5861 131.821C78.5537 131.374 78.5259 130.925 78.503 130.498C77.8329 131.348 76.9779 132.382 76.0193 133.421C74.875 134.662 73.5635 135.932 72.2266 136.909C70.9147 137.867 69.4601 138.632 68.0478 138.682L67.4828 138.702L67.2322 138.195C66.7296 137.179 66.5925 135.973 66.6438 134.759C66.6954 133.537 66.9416 132.238 67.2704 130.984C67.8369 128.825 68.6716 126.719 69.2725 125.268C69.1448 125.309 69.0114 125.354 68.8728 125.402C68.0595 125.686 67.1729 126.05 66.3664 126.381L66.3532 126.387C65.8163 126.607 65.3071 126.817 64.9005 126.966C64.6961 127.042 64.4998 127.109 64.3285 127.156C64.2017 127.191 63.9454 127.259 63.6926 127.229L63.0509 127.152L62.9347 126.516C61.3732 117.967 67.4027 111.311 73.6459 106.976L73.9196 106.786ZM78.585 127.469L80.3662 124.902L80.1786 128.021C80.1609 128.315 80.207 129.957 80.3329 131.695C80.3949 132.552 80.4745 133.404 80.5706 134.097C80.5989 134.301 80.6281 134.487 80.6579 134.652C82.2594 134.023 83.8805 132.532 85.4491 130.011C87.2201 127.164 88.8511 123.119 90.2687 117.875C86.4197 112.806 80.6726 109.459 74.3702 108.607C68.6207 112.669 63.7611 118.329 64.517 125.239C64.8517 125.11 65.2526 124.946 65.701 124.761L65.7121 124.757C66.5069 124.43 67.4336 124.05 68.2955 123.749C69.1294 123.458 70.0219 123.197 70.7041 123.185L72.0079 123.163L71.5349 124.378C71.4427 124.615 71.3116 124.929 71.161 125.289L71.1565 125.3C70.5575 126.732 69.5863 129.058 68.9645 131.429C68.6538 132.613 68.4381 133.781 68.3936 134.833C68.3608 135.609 68.4227 136.285 68.5837 136.846C69.3419 136.664 70.2266 136.201 71.1933 135.495C72.4015 134.612 73.626 133.433 74.7319 132.234C75.8343 131.039 76.7995 129.845 77.4902 128.949C77.835 128.501 78.1102 128.129 78.2986 127.87C78.3928 127.74 78.4652 127.639 78.5136 127.57L78.5681 127.493L78.5813 127.474L78.585 127.469Z" fill="black"/>
<path d="M87.8458 111.759C82.878 120.364 75.1414 125.197 75.1414 125.197C75.1414 125.197 75.4591 116.08 80.4269 107.476C85.3947 98.8715 93.1313 94.0379 93.1313 94.0379C93.1313 94.0379 92.8136 103.155 87.8458 111.759Z" fill="#625CE4"/>
<path fill-rule="evenodd" clip-rule="evenodd" d="M78.4635 120.399C80.9287 118.196 83.9659 114.977 86.3291 110.884C88.6922 106.791 89.9613 102.551 90.6371 99.314C90.7422 98.8104 90.8327 98.3323 90.9106 97.8843C90.5616 98.1758 90.1928 98.4932 89.8092 98.8361C87.344 101.04 84.3068 104.259 81.9436 108.352C79.5805 112.445 78.3114 116.685 77.6356 119.921C77.5305 120.425 77.44 120.903 77.3621 121.351C77.7112 121.06 78.0799 120.742 78.4635 120.399ZM77.0045 123.877C75.8619 124.747 75.1414 125.197 75.1414 125.197C75.1414 125.197 75.171 124.348 75.3533 122.924C75.7684 119.681 76.9752 113.455 80.4269 107.476C83.8786 101.497 88.667 97.3394 91.2683 95.3583C92.4108 94.4881 93.1313 94.0379 93.1313 94.0379C93.1313 94.0379 93.1018 94.887 92.9194 96.3116C92.5043 99.5549 91.2975 105.781 87.8458 111.759C84.3941 117.738 79.6057 121.896 77.0045 123.877Z" fill="black"/>
</g>
<defs>
<filter id="filter0_d_11744_1704" x="36.9436" y="18.0827" width="135.482" height="135.482" filterUnits="userSpaceOnUse" color-interpolation-filters="sRGB">
<feFlood flood-opacity="0" result="BackgroundImageFix"/>
<feColorMatrix in="SourceAlpha" type="matrix" values="0 0 0 0 0 0 0 0 0 0 0 0 0 0 0 0 0 0 127 0" result="hardAlpha"/>
<feOffset dy="9.29379"/>
<feGaussianBlur stdDeviation="25.5579"/>
<feColorMatrix type="matrix" values="0 0 0 0 0 0 0 0 0 0 0 0 0 0 0 0 0 0 0.13 0"/>
<feBlend mode="normal" in2="BackgroundImageFix" result="effect1_dropShadow_11744_1704"/>
<feBlend mode="normal" in="SourceGraphic" in2="effect1_dropShadow_11744_1704" result="shape"/>
</filter>
<filter id="filter1_d_11744_1704" x="36.9436" y="18.0827" width="135.482" height="135.482" filterUnits="userSpaceOnUse" color-interpolation-filters="sRGB">
<feFlood flood-opacity="0" result="BackgroundImageFix"/>
<feColorMatrix in="SourceAlpha" type="matrix" values="0 0 0 0 0 0 0 0 0 0 0 0 0 0 0 0 0 0 127 0" result="hardAlpha"/>
<feOffset dy="9.29379"/>
<feGaussianBlur stdDeviation="25.5579"/>
<feColorMatrix type="matrix" values="0 0 0 0 0 0 0 0 0 0 0 0 0 0 0 0 0 0 0.13 0"/>
<feBlend mode="normal" in2="BackgroundImageFix" result="effect1_dropShadow_11744_1704"/>
<feBlend mode="normal" in="SourceGraphic" in2="effect1_dropShadow_11744_1704" result="shape"/>
</filter>
<filter id="filter2_d_11744_1704" x="36.6803" y="13.6577" width="136.168" height="136.167" filterUnits="userSpaceOnUse" color-interpolation-filters="sRGB">
<feFlood flood-opacity="0" result="BackgroundImageFix"/>
<feColorMatrix in="SourceAlpha" type="matrix" values="0 0 0 0 0 0 0 0 0 0 0 0 0 0 0 0 0 0 127 0" result="hardAlpha"/>
<feOffset dy="9.34082"/>
<feGaussianBlur stdDeviation="25.6873"/>
<feColorMatrix type="matrix" values="0 0 0 0 0 0 0 0 0 0 0 0 0 0 0 0 0 0 0.13 0"/>
<feBlend mode="normal" in2="BackgroundImageFix" result="effect1_dropShadow_11744_1704"/>
<feBlend mode="normal" in="SourceGraphic" in2="effect1_dropShadow_11744_1704" result="shape"/>
</filter>
<filter id="filter3_d_11744_1704" x="36.6803" y="13.6577" width="136.168" height="136.167" filterUnits="userSpaceOnUse" color-interpolation-filters="sRGB">
<feFlood flood-opacity="0" result="BackgroundImageFix"/>
<feColorMatrix in="SourceAlpha" type="matrix" values="0 0 0 0 0 0 0 0 0 0 0 0 0 0 0 0 0 0 127 0" result="hardAlpha"/>
<feOffset dy="9.34082"/>
<feGaussianBlur stdDeviation="25.6873"/>
<feColorMatrix type="matrix" values="0 0 0 0 0 0 0 0 0 0 0 0 0 0 0 0 0 0 0.13 0"/>
<feBlend mode="normal" in2="BackgroundImageFix" result="effect1_dropShadow_11744_1704"/>
<feBlend mode="normal" in="SourceGraphic" in2="effect1_dropShadow_11744_1704" result="shape"/>
</filter>
</defs>
</svg>
